<svg xmlns="http://www.w3.org/2000/svg" xmlns:xlink="http://www.w3.org/1999/xlink" width="500" zoomAndPan="magnify" viewBox="0 0 375 374.999991" height="500" preserveAspectRatio="xMidYMid meet" version="1.0"><defs><g/><clipPath id="id1"><path d="M 167 57.789062 L 309 57.789062 L 309 154 L 167 154 Z M 167 57.789062 " clip-rule="nonzero"/></clipPath><clipPath id="id2"><path d="M 154.484375 66 L 251 66 L 251 207.039062 L 154.484375 207.039062 Z M 154.484375 66 " clip-rule="nonzero"/></clipPath><clipPath id="id3"><path d="M 254 145 L 289 145 L 289 207.039062 L 254 207.039062 Z M 254 145 " clip-rule="nonzero"/></clipPath></defs><rect x="-37.5" width="450" fill="rgb(100%, 100%, 100%)" y="-37.499999" height="449.999989" fill-opacity="1"/><rect x="-37.5" width="450" fill="rgb(100%, 100%, 100%)" y="-37.499999" height="449.999989" fill-opacity="1"/><rect x="-37.5" width="450" fill="rgb(100%, 100%, 100%)" y="-37.499999" height="449.999989" fill-opacity="1"/><g clip-path="url(#id1)"><path fill="rgb(18.818665%, 27.839661%, 36.859131%)" d="M 177.789062 60.5 L 225.582031 73.667969 L 307.375 152.234375 L 308.730469 153.523438 L 267.566406 153.523438 L 255.386719 141.84375 L 252.503906 139.089844 L 172.410156 62.09375 L 167.890625 57.789062 L 177.789062 60.5 " fill-opacity="1" fill-rule="nonzero"/></g><path fill="rgb(18.818665%, 27.839661%, 36.859131%)" d="M 142.046875 82.617188 L 165.738281 59.75 L 170.96875 64.78125 L 152.464844 82.617188 L 102.882812 130.355469 L 76.78125 155.523438 L 66.34375 155.523438 L 97.71875 125.300781 L 142.046875 82.617188 " fill-opacity="1" fill-rule="nonzero"/><path fill="rgb(18.818665%, 27.839661%, 36.859131%)" d="M 137.636719 83.457031 L 93.285156 126.160156 L 93.285156 83.457031 Z M 137.636719 83.457031 " fill-opacity="1" fill-rule="nonzero"/><path fill="rgb(18.818665%, 27.839661%, 36.859131%)" d="M 93.308594 186.269531 L 93.308594 141.949219 L 151.195312 86.339844 L 151.195312 186.269531 L 93.308594 186.269531 " fill-opacity="1" fill-rule="nonzero"/><g clip-path="url(#id2)"><path fill="rgb(18.818665%, 27.839661%, 36.859131%)" d="M 247.878906 204.402344 L 157.714844 204.402344 L 157.714844 84.53125 L 172.21875 70.632812 L 247.878906 143.132812 Z M 172.089844 66.246094 L 154.636719 83.046875 L 154.636719 207.265625 L 250.996094 207.265625 L 250.996094 141.972656 L 172.089844 66.246094 " fill-opacity="1" fill-rule="nonzero"/></g><path fill="rgb(18.818665%, 27.839661%, 36.859131%)" d="M 187.730469 89.542969 L 187.730469 149.027344 C 173.875 157.332031 164.0625 170.949219 160.53125 186.699219 L 160.53125 85.457031 L 172.089844 74.378906 L 187.730469 89.542969 " fill-opacity="1" fill-rule="nonzero"/><path fill="rgb(18.818665%, 27.839661%, 36.859131%)" d="M 207.960938 108.992188 L 207.960938 140.960938 C 202.105469 142.25 196.449219 144.339844 191.175781 147.199219 L 191.175781 92.878906 L 207.960938 108.992188 " fill-opacity="1" fill-rule="nonzero"/><path fill="rgb(18.818665%, 27.839661%, 36.859131%)" d="M 242.152344 141.863281 C 235.957031 140.058594 229.523438 139.152344 223.066406 139.195312 C 219.171875 139.175781 215.277344 139.519531 211.445312 140.1875 L 211.445312 112.328125 L 242.152344 141.863281 " fill-opacity="1" fill-rule="nonzero"/><g clip-path="url(#id3)"><path fill="rgb(18.818665%, 27.839661%, 36.859131%)" d="M 288.484375 176.414062 L 254.632812 207.15625 L 254.632812 145.542969 L 266.8125 157.226562 L 288.484375 157.226562 L 288.484375 176.414062 " fill-opacity="1" fill-rule="nonzero"/></g><g fill="rgb(18.818665%, 27.839661%, 36.859131%)" fill-opacity="1"><g transform="translate(129.691655, 267.011933)"><g><path d="M 1.371094 -2.527344 L 1.371094 -1.261719 C 1.371094 -1.261719 4.722656 1.429688 10.652344 1.429688 C 16.585938 1.429688 22.242188 -2.691406 22.242188 -8.785156 C 22.242188 -21.089844 4.613281 -17.464844 4.613281 -27.457031 C 4.613281 -31.355469 7.304688 -34.542969 12.027344 -34.542969 C 16.695312 -34.542969 19.714844 -32.289062 19.714844 -32.289062 L 19.660156 -33.445312 C 19.660156 -33.445312 16.363281 -35.476562 11.972656 -35.476562 C 7.632812 -35.476562 1.539062 -32.839844 1.539062 -25.976562 C 1.539062 -13.675781 19.109375 -18.289062 19.109375 -7.414062 C 19.109375 -2.085938 15.046875 0.550781 10.652344 0.550781 C 5.929688 0.550781 3.296875 -1.042969 1.371094 -2.527344 Z M 1.371094 -2.527344 "/></g></g></g><g fill="rgb(18.818665%, 27.839661%, 36.859131%)" fill-opacity="1"><g transform="translate(154.120602, 267.011933)"><g><path d="M 31.136719 -3.074219 C 31.136719 -3.074219 27.457031 0.109375 21.089844 0.109375 C 14.9375 0.109375 6.207031 -2.636719 6.207031 -17.078125 C 6.207031 -31.300781 15.761719 -34.214844 21.089844 -34.214844 C 27.566406 -34.214844 31.136719 -31.632812 31.136719 -31.632812 L 31.136719 -32.839844 C 31.136719 -32.839844 27.347656 -35.089844 21.089844 -35.089844 C 11.203125 -35.089844 2.195312 -29.820312 2.195312 -17.078125 C 2.195312 -2.417969 13.675781 1.042969 20.59375 1.042969 C 27.457031 1.042969 31.136719 -1.867188 31.136719 -1.867188 Z M 31.136719 -3.074219 "/></g></g></g><g fill="rgb(18.818665%, 27.839661%, 36.859131%)" fill-opacity="1"><g transform="translate(187.60749, 267.011933)"><g><path d="M 37.617188 -35.089844 L 37.507812 -35.089844 L 22.078125 -5.875 L 6.863281 -35.089844 L 6.699219 -35.089844 L 1.976562 0.0546875 L 2.855469 0.0546875 L 6.535156 -27.183594 L 20.210938 -0.878906 L 20.429688 -0.878906 L 34.542969 -27.621094 L 37.78125 0.0546875 L 41.738281 0.0546875 Z M 37.617188 -35.089844 "/></g></g></g><g fill="rgb(18.818665%, 27.839661%, 36.859131%)" fill-opacity="1"><g transform="translate(231.565542, 267.011933)"><g/></g></g><g fill="rgb(18.818665%, 27.839661%, 36.859131%)" fill-opacity="1"><g transform="translate(26.714246, 311.137492)"><g><path d="M 5.796875 -11.839844 L 0.90625 -11.839844 L 0.90625 0.0195312 L 4.910156 0.0195312 C 5.476562 0.0195312 11.800781 0.300781 11.800781 -6.097656 C 11.800781 -11.273438 7.988281 -11.839844 5.796875 -11.839844 Z M 4.871094 -0.285156 L 2.246094 -0.285156 L 2.246094 -11.515625 L 5.078125 -11.515625 C 7.230469 -11.515625 10.402344 -10.722656 10.402344 -6.097656 C 10.402344 -1.492188 7.457031 -0.285156 4.871094 -0.285156 Z M 4.871094 -0.285156 "/></g></g></g><g fill="rgb(18.818665%, 27.839661%, 36.859131%)" fill-opacity="1"><g transform="translate(43.302494, 311.137492)"><g><path d="M 3.925781 -13.199219 L 3.664062 -13.199219 L 5.078125 -16.144531 L 6.324219 -16.144531 Z M 6.910156 -11.535156 L 6.910156 -11.839844 L 0.90625 -11.839844 L 0.90625 0.0195312 L 6.910156 0.0195312 L 6.910156 -0.285156 L 2.246094 -0.285156 L 2.246094 -6.023438 L 6.402344 -6.023438 L 6.402344 -6.324219 L 2.246094 -6.324219 L 2.246094 -11.535156 Z M 6.910156 -11.535156 "/></g></g></g><g fill="rgb(18.818665%, 27.839661%, 36.859131%)" fill-opacity="1"><g transform="translate(54.947953, 311.137492)"><g><path d="M 10.707031 -1.058594 C 10.707031 -1.058594 9.441406 0.0390625 7.25 0.0390625 C 5.136719 0.0390625 2.132812 -0.90625 2.132812 -5.871094 C 2.132812 -10.761719 5.417969 -11.761719 7.25 -11.761719 C 9.476562 -11.761719 10.707031 -10.875 10.707031 -10.875 L 10.707031 -11.289062 C 10.707031 -11.289062 9.402344 -12.066406 7.25 -12.066406 C 3.851562 -12.066406 0.753906 -10.253906 0.753906 -5.871094 C 0.753906 -0.832031 4.703125 0.359375 7.082031 0.359375 C 9.441406 0.359375 10.707031 -0.640625 10.707031 -0.640625 Z M 10.707031 -1.058594 "/></g></g></g><g fill="rgb(18.818665%, 27.839661%, 36.859131%)" fill-opacity="1"><g transform="translate(70.385408, 311.137492)"><g><path d="M 7.25 -12.066406 C 3.851562 -12.066406 0.753906 -10.253906 0.753906 -5.871094 C 0.753906 -0.832031 4.871094 0.359375 7.25 0.359375 C 9.609375 0.359375 13.746094 -0.832031 13.746094 -5.871094 C 13.746094 -10.253906 10.628906 -12.066406 7.25 -12.066406 Z M 7.25 0.0390625 C 5.117188 0.0390625 2.132812 -0.90625 2.132812 -5.871094 C 2.132812 -10.761719 5.417969 -11.761719 7.25 -11.761719 C 9.082031 -11.761719 12.367188 -10.761719 12.367188 -5.871094 C 12.367188 -0.90625 9.363281 0.0390625 7.25 0.0390625 Z M 7.25 0.0390625 "/></g></g></g><g fill="rgb(18.818665%, 27.839661%, 36.859131%)" fill-opacity="1"><g transform="translate(88.916816, 311.137492)"><g><path d="M 9.214844 0.0195312 L 4.777344 -5.570312 C 6.175781 -5.757812 8.289062 -6.4375 8.289062 -8.875 C 8.289062 -11.480469 5.457031 -11.839844 4.492188 -11.839844 C 3.570312 -11.839844 0.90625 -11.839844 0.90625 -11.839844 L 0.90625 0.0195312 L 2.246094 0.0195312 L 2.246094 -5.496094 L 3.117188 -5.496094 L 7.496094 0.0195312 Z M 2.246094 -11.535156 L 3.777344 -11.535156 C 5.703125 -11.535156 6.855469 -10.742188 6.855469 -8.667969 C 6.855469 -6.550781 5.496094 -5.796875 3.285156 -5.796875 L 2.246094 -5.796875 Z M 2.246094 -11.535156 "/></g></g></g><g fill="rgb(18.818665%, 27.839661%, 36.859131%)" fill-opacity="1"><g transform="translate(102.694082, 311.137492)"><g><path d="M 9.875 0.0195312 L 11.328125 0.0195312 L 6.136719 -12.066406 L 6.042969 -12.066406 L 0.660156 0.0195312 L 1.078125 0.0195312 L 3.210938 -4.738281 L 7.816406 -4.738281 Z M 3.34375 -5.058594 L 5.550781 -10.027344 L 7.683594 -5.058594 Z M 3.34375 -5.058594 "/></g></g></g><g fill="rgb(18.818665%, 27.839661%, 36.859131%)" fill-opacity="1"><g transform="translate(118.622044, 311.137492)"><g><path d="M 9.269531 -11.839844 L 0.625 -11.839844 L 0.625 -11.535156 L 4.265625 -11.535156 L 4.265625 0.0195312 L 5.625 0.0195312 L 5.625 -11.535156 L 9.269531 -11.535156 Z M 9.269531 -11.839844 "/></g></g></g><g fill="rgb(18.818665%, 27.839661%, 36.859131%)" fill-opacity="1"><g transform="translate(132.455921, 311.137492)"><g><path d="M 1.09375 0.0195312 L 2.4375 0.0195312 L 2.4375 -11.839844 L 1.09375 -11.839844 Z M 1.09375 0.0195312 "/></g></g></g><g fill="rgb(18.818665%, 27.839661%, 36.859131%)" fill-opacity="1"><g transform="translate(140.00754, 311.137492)"><g><path d="M 7.25 -12.066406 C 3.851562 -12.066406 0.753906 -10.253906 0.753906 -5.871094 C 0.753906 -0.832031 4.871094 0.359375 7.25 0.359375 C 9.609375 0.359375 13.746094 -0.832031 13.746094 -5.871094 C 13.746094 -10.253906 10.628906 -12.066406 7.25 -12.066406 Z M 7.25 0.0390625 C 5.117188 0.0390625 2.132812 -0.90625 2.132812 -5.871094 C 2.132812 -10.761719 5.417969 -11.761719 7.25 -11.761719 C 9.082031 -11.761719 12.367188 -10.761719 12.367188 -5.871094 C 12.367188 -0.90625 9.363281 0.0390625 7.25 0.0390625 Z M 7.25 0.0390625 "/></g></g></g><g fill="rgb(18.818665%, 27.839661%, 36.859131%)" fill-opacity="1"><g transform="translate(158.538942, 311.137492)"><g><path d="M 10.535156 -11.839844 L 10.234375 -11.839844 L 10.234375 -1.792969 L 0.945312 -12.066406 L 0.90625 -12.066406 L 0.90625 0.0195312 L 1.207031 0.0195312 L 1.207031 -9.914062 L 10.480469 0.359375 L 10.535156 0.359375 Z M 10.535156 -11.839844 "/></g></g></g><g fill="rgb(18.818665%, 27.839661%, 36.859131%)" fill-opacity="1"><g transform="translate(173.995261, 311.137492)"><g/></g></g><g fill="rgb(18.818665%, 27.839661%, 36.859131%)" fill-opacity="1"><g transform="translate(182.641087, 311.137492)"><g><path d="M 0.90625 -5.757812 L 9.554688 -5.757812 L 9.554688 -6.0625 L 0.90625 -6.0625 Z M 0.90625 -5.757812 "/></g></g></g><g fill="rgb(18.818665%, 27.839661%, 36.859131%)" fill-opacity="1"><g transform="translate(197.003199, 311.137492)"><g/></g></g><g fill="rgb(18.818665%, 27.839661%, 36.859131%)" fill-opacity="1"><g transform="translate(205.649024, 311.137492)"><g><path d="M 9.214844 0.0195312 L 4.777344 -5.570312 C 6.175781 -5.757812 8.289062 -6.4375 8.289062 -8.875 C 8.289062 -11.480469 5.457031 -11.839844 4.492188 -11.839844 C 3.570312 -11.839844 0.90625 -11.839844 0.90625 -11.839844 L 0.90625 0.0195312 L 2.246094 0.0195312 L 2.246094 -5.496094 L 3.117188 -5.496094 L 7.496094 0.0195312 Z M 2.246094 -11.535156 L 3.777344 -11.535156 C 5.703125 -11.535156 6.855469 -10.742188 6.855469 -8.667969 C 6.855469 -6.550781 5.496094 -5.796875 3.285156 -5.796875 L 2.246094 -5.796875 Z M 2.246094 -11.535156 "/></g></g></g><g fill="rgb(18.818665%, 27.839661%, 36.859131%)" fill-opacity="1"><g transform="translate(219.426285, 311.137492)"><g><path d="M 3.925781 -13.199219 L 3.664062 -13.199219 L 5.078125 -16.144531 L 6.324219 -16.144531 Z M 6.910156 -11.535156 L 6.910156 -11.839844 L 0.90625 -11.839844 L 0.90625 0.0195312 L 6.910156 0.0195312 L 6.910156 -0.285156 L 2.246094 -0.285156 L 2.246094 -6.023438 L 6.402344 -6.023438 L 6.402344 -6.324219 L 2.246094 -6.324219 L 2.246094 -11.535156 Z M 6.910156 -11.535156 "/></g></g></g><g fill="rgb(18.818665%, 27.839661%, 36.859131%)" fill-opacity="1"><g transform="translate(231.07174, 311.137492)"><g><path d="M 10.535156 -11.839844 L 10.234375 -11.839844 L 10.234375 -1.792969 L 0.945312 -12.066406 L 0.90625 -12.066406 L 0.90625 0.0195312 L 1.207031 0.0195312 L 1.207031 -9.914062 L 10.480469 0.359375 L 10.535156 0.359375 Z M 10.535156 -11.839844 "/></g></g></g><g fill="rgb(18.818665%, 27.839661%, 36.859131%)" fill-opacity="1"><g transform="translate(246.528058, 311.137492)"><g><path d="M 7.25 -12.066406 C 3.851562 -12.066406 0.753906 -10.253906 0.753906 -5.871094 C 0.753906 -0.832031 4.871094 0.359375 7.25 0.359375 C 9.609375 0.359375 13.746094 -0.832031 13.746094 -5.871094 C 13.746094 -10.253906 10.628906 -12.066406 7.25 -12.066406 Z M 7.25 0.0390625 C 5.117188 0.0390625 2.132812 -0.90625 2.132812 -5.871094 C 2.132812 -10.761719 5.417969 -11.761719 7.25 -11.761719 C 9.082031 -11.761719 12.367188 -10.761719 12.367188 -5.871094 C 12.367188 -0.90625 9.363281 0.0390625 7.25 0.0390625 Z M 7.25 0.0390625 "/></g></g></g><g fill="rgb(18.818665%, 27.839661%, 36.859131%)" fill-opacity="1"><g transform="translate(265.059461, 311.137492)"><g><path d="M 10.855469 -11.839844 L 6.382812 -1.773438 L 2.078125 -11.839844 L 0.625 -11.839844 L 5.796875 0.265625 L 5.910156 0.265625 L 11.289062 -11.839844 Z M 10.855469 -11.839844 "/></g></g></g><g fill="rgb(18.818665%, 27.839661%, 36.859131%)" fill-opacity="1"><g transform="translate(280.911943, 311.137492)"><g><path d="M 9.875 0.0195312 L 11.328125 0.0195312 L 6.136719 -12.066406 L 6.042969 -12.066406 L 0.660156 0.0195312 L 1.078125 0.0195312 L 3.210938 -4.738281 L 7.816406 -4.738281 Z M 3.34375 -5.058594 L 5.550781 -10.027344 L 7.683594 -5.058594 Z M 3.34375 -5.058594 "/></g></g></g><g fill="rgb(18.818665%, 27.839661%, 36.859131%)" fill-opacity="1"><g transform="translate(296.8399, 311.137492)"><g><path d="M 9.269531 -11.839844 L 0.625 -11.839844 L 0.625 -11.535156 L 4.265625 -11.535156 L 4.265625 0.0195312 L 5.625 0.0195312 L 5.625 -11.535156 L 9.269531 -11.535156 Z M 9.269531 -11.839844 "/></g></g></g><g fill="rgb(18.818665%, 27.839661%, 36.859131%)" fill-opacity="1"><g transform="translate(310.673767, 311.137492)"><g><path d="M 1.09375 0.0195312 L 2.4375 0.0195312 L 2.4375 -11.839844 L 1.09375 -11.839844 Z M 1.09375 0.0195312 "/></g></g></g><g fill="rgb(18.818665%, 27.839661%, 36.859131%)" fill-opacity="1"><g transform="translate(318.225386, 311.137492)"><g><path d="M 7.25 -12.066406 C 3.851562 -12.066406 0.753906 -10.253906 0.753906 -5.871094 C 0.753906 -0.832031 4.871094 0.359375 7.25 0.359375 C 9.609375 0.359375 13.746094 -0.832031 13.746094 -5.871094 C 13.746094 -10.253906 10.628906 -12.066406 7.25 -12.066406 Z M 7.25 0.0390625 C 5.117188 0.0390625 2.132812 -0.90625 2.132812 -5.871094 C 2.132812 -10.761719 5.417969 -11.761719 7.25 -11.761719 C 9.082031 -11.761719 12.367188 -10.761719 12.367188 -5.871094 C 12.367188 -0.90625 9.363281 0.0390625 7.25 0.0390625 Z M 7.25 0.0390625 "/></g></g></g><g fill="rgb(18.818665%, 27.839661%, 36.859131%)" fill-opacity="1"><g transform="translate(336.756788, 311.137492)"><g><path d="M 10.535156 -11.839844 L 10.234375 -11.839844 L 10.234375 -1.792969 L 0.945312 -12.066406 L 0.90625 -12.066406 L 0.90625 0.0195312 L 1.207031 0.0195312 L 1.207031 -9.914062 L 10.480469 0.359375 L 10.535156 0.359375 Z M 10.535156 -11.839844 "/></g></g></g></svg>